<mxfile host="app.diagrams.net" modified="2024-05-25T19:45:21.158Z" agent="Mozilla/5.0 (Macintosh; Intel Mac OS X 10_15_7) AppleWebKit/537.36 (KHTML, like Gecko) Chrome/124.0.0.0 Safari/537.36" etag="y6bR0wxCywhf7Dx2z-oj" version="24.4.8" type="device">
  <diagram name="Page-1" id="-ZYCApN5Wwl5NKDxl_Fw">
    <mxGraphModel dx="1912" dy="1060" grid="1" gridSize="10" guides="1" tooltips="1" connect="1" arrows="1" fold="1" page="1" pageScale="1" pageWidth="850" pageHeight="1100" math="0" shadow="0">
      <root>
        <mxCell id="0" />
        <mxCell id="1" parent="0" />
        <mxCell id="LBr9hsCO0pmCrkEfYy0i-32" value="" style="group" parent="1" vertex="1" connectable="0">
          <mxGeometry x="40" y="330" width="400" height="1160" as="geometry" />
        </mxCell>
        <mxCell id="LBr9hsCO0pmCrkEfYy0i-30" value="" style="rounded=0;whiteSpace=wrap;html=1;fillColor=none;" parent="LBr9hsCO0pmCrkEfYy0i-32" vertex="1">
          <mxGeometry width="400" height="1100" as="geometry" />
        </mxCell>
        <mxCell id="LBr9hsCO0pmCrkEfYy0i-31" value="1" style="ellipse;whiteSpace=wrap;html=1;aspect=fixed;fontSize=27;fontStyle=1;spacing=2;spacingLeft=2;spacingTop=1;" parent="LBr9hsCO0pmCrkEfYy0i-32" vertex="1">
          <mxGeometry x="10" y="15.162271567275887" width="47.103155911446066" height="47.103155911446066" as="geometry" />
        </mxCell>
        <mxCell id="MKQej5prIgWaxCBxzrgC-1" value="Dev" style="rounded=0;whiteSpace=wrap;html=1;dashed=1;fillColor=#f5f5f5;fontColor=#333333;strokeColor=#666666;fontStyle=1;labelPosition=center;verticalLabelPosition=middle;align=left;verticalAlign=bottom;spacingLeft=4;spacingBottom=2;" vertex="1" parent="LBr9hsCO0pmCrkEfYy0i-32">
          <mxGeometry x="10" y="80" width="380" height="320" as="geometry" />
        </mxCell>
        <mxCell id="MKQej5prIgWaxCBxzrgC-2" value="Stage" style="rounded=0;whiteSpace=wrap;html=1;dashed=1;fillColor=#f5f5f5;fontColor=#333333;strokeColor=#666666;fontStyle=1;labelPosition=center;verticalLabelPosition=middle;align=left;verticalAlign=bottom;spacingLeft=4;spacingBottom=2;" vertex="1" parent="LBr9hsCO0pmCrkEfYy0i-32">
          <mxGeometry x="10" y="420" width="380" height="320" as="geometry" />
        </mxCell>
        <mxCell id="MKQej5prIgWaxCBxzrgC-3" value="&lt;div style=&quot;font-size: 8px;&quot;&gt;&lt;font style=&quot;font-size: 8px;&quot;&gt;&lt;br style=&quot;&quot;&gt;&lt;/font&gt;&lt;/div&gt;v1" style="verticalLabelPosition=middle;html=1;verticalAlign=top;strokeWidth=1;align=center;outlineConnect=0;dashed=0;outlineConnect=0;shape=mxgraph.aws3d.dataServer;strokeColor=#6c8ebf;aspect=fixed;fillColor=#dae8fc;labelPosition=center;fontStyle=1;fontSize=33;" vertex="1" parent="LBr9hsCO0pmCrkEfYy0i-32">
          <mxGeometry x="259" y="440" width="123" height="106" as="geometry" />
        </mxCell>
        <mxCell id="MKQej5prIgWaxCBxzrgC-4" value="&lt;div style=&quot;font-size: 8px;&quot;&gt;&lt;font style=&quot;font-size: 8px;&quot;&gt;&lt;br style=&quot;&quot;&gt;&lt;/font&gt;&lt;/div&gt;v1" style="verticalLabelPosition=middle;html=1;verticalAlign=top;strokeWidth=1;align=center;outlineConnect=0;dashed=0;outlineConnect=0;shape=mxgraph.aws3d.dataServer;strokeColor=#6c8ebf;aspect=fixed;fillColor=#dae8fc;labelPosition=center;fontStyle=1;fontSize=33;" vertex="1" parent="LBr9hsCO0pmCrkEfYy0i-32">
          <mxGeometry x="261" y="531.09" width="123" height="106" as="geometry" />
        </mxCell>
        <mxCell id="MKQej5prIgWaxCBxzrgC-5" value="&lt;div style=&quot;font-size: 8px;&quot;&gt;&lt;font style=&quot;font-size: 8px;&quot;&gt;&lt;br style=&quot;&quot;&gt;&lt;/font&gt;&lt;/div&gt;v1" style="verticalLabelPosition=middle;html=1;verticalAlign=top;strokeWidth=1;align=center;outlineConnect=0;dashed=0;outlineConnect=0;shape=mxgraph.aws3d.dataServer;strokeColor=#6c8ebf;aspect=fixed;fillColor=#dae8fc;labelPosition=center;fontStyle=1;fontSize=33;" vertex="1" parent="LBr9hsCO0pmCrkEfYy0i-32">
          <mxGeometry x="259" y="620" width="123" height="106" as="geometry" />
        </mxCell>
        <mxCell id="MKQej5prIgWaxCBxzrgC-6" style="edgeStyle=orthogonalEdgeStyle;rounded=0;orthogonalLoop=1;jettySize=auto;html=1;" edge="1" parent="LBr9hsCO0pmCrkEfYy0i-32" source="MKQej5prIgWaxCBxzrgC-9" target="MKQej5prIgWaxCBxzrgC-3">
          <mxGeometry relative="1" as="geometry" />
        </mxCell>
        <mxCell id="MKQej5prIgWaxCBxzrgC-7" style="edgeStyle=orthogonalEdgeStyle;rounded=0;orthogonalLoop=1;jettySize=auto;html=1;" edge="1" parent="LBr9hsCO0pmCrkEfYy0i-32" source="MKQej5prIgWaxCBxzrgC-9" target="MKQej5prIgWaxCBxzrgC-4">
          <mxGeometry relative="1" as="geometry" />
        </mxCell>
        <mxCell id="MKQej5prIgWaxCBxzrgC-8" style="edgeStyle=orthogonalEdgeStyle;rounded=0;orthogonalLoop=1;jettySize=auto;html=1;" edge="1" parent="LBr9hsCO0pmCrkEfYy0i-32" source="MKQej5prIgWaxCBxzrgC-9" target="MKQej5prIgWaxCBxzrgC-5">
          <mxGeometry relative="1" as="geometry" />
        </mxCell>
        <mxCell id="MKQej5prIgWaxCBxzrgC-9" value="" style="verticalLabelPosition=bottom;html=1;verticalAlign=top;strokeWidth=1;align=center;outlineConnect=0;dashed=0;outlineConnect=0;shape=mxgraph.aws3d.elasticLoadBalancing;fillColor=#ECECEC;strokeColor=#5E5E5E;aspect=fixed;" vertex="1" parent="LBr9hsCO0pmCrkEfYy0i-32">
          <mxGeometry x="120" y="540.01" width="92" height="88.17" as="geometry" />
        </mxCell>
        <mxCell id="MKQej5prIgWaxCBxzrgC-10" style="edgeStyle=orthogonalEdgeStyle;rounded=0;orthogonalLoop=1;jettySize=auto;html=1;" edge="1" parent="LBr9hsCO0pmCrkEfYy0i-32" source="MKQej5prIgWaxCBxzrgC-11" target="MKQej5prIgWaxCBxzrgC-9">
          <mxGeometry relative="1" as="geometry" />
        </mxCell>
        <mxCell id="MKQej5prIgWaxCBxzrgC-11" value="" style="verticalLabelPosition=bottom;html=1;verticalAlign=top;strokeWidth=1;align=center;outlineConnect=0;dashed=0;outlineConnect=0;shape=mxgraph.aws3d.end_user;strokeColor=none;fillColor=#777777;aspect=fixed;" vertex="1" parent="LBr9hsCO0pmCrkEfYy0i-32">
          <mxGeometry x="20" y="533.86" width="49" height="100.46" as="geometry" />
        </mxCell>
        <mxCell id="MKQej5prIgWaxCBxzrgC-12" value="Prod" style="rounded=0;whiteSpace=wrap;html=1;dashed=1;fillColor=#f5f5f5;fontColor=#333333;strokeColor=#666666;fontStyle=1;labelPosition=center;verticalLabelPosition=middle;align=left;verticalAlign=bottom;spacingLeft=4;spacingBottom=2;" vertex="1" parent="LBr9hsCO0pmCrkEfYy0i-32">
          <mxGeometry x="10" y="760" width="380" height="320" as="geometry" />
        </mxCell>
        <mxCell id="MKQej5prIgWaxCBxzrgC-13" value="&lt;div style=&quot;font-size: 8px;&quot;&gt;&lt;font style=&quot;font-size: 8px;&quot;&gt;&lt;br style=&quot;&quot;&gt;&lt;/font&gt;&lt;/div&gt;v1" style="verticalLabelPosition=middle;html=1;verticalAlign=top;strokeWidth=1;align=center;outlineConnect=0;dashed=0;outlineConnect=0;shape=mxgraph.aws3d.dataServer;strokeColor=#6c8ebf;aspect=fixed;fillColor=#dae8fc;labelPosition=center;fontStyle=1;fontSize=33;" vertex="1" parent="LBr9hsCO0pmCrkEfYy0i-32">
          <mxGeometry x="259" y="780" width="123" height="106" as="geometry" />
        </mxCell>
        <mxCell id="MKQej5prIgWaxCBxzrgC-14" value="&lt;div style=&quot;font-size: 8px;&quot;&gt;&lt;font style=&quot;font-size: 8px;&quot;&gt;&lt;br style=&quot;&quot;&gt;&lt;/font&gt;&lt;/div&gt;v1" style="verticalLabelPosition=middle;html=1;verticalAlign=top;strokeWidth=1;align=center;outlineConnect=0;dashed=0;outlineConnect=0;shape=mxgraph.aws3d.dataServer;strokeColor=#6c8ebf;aspect=fixed;fillColor=#dae8fc;labelPosition=center;fontStyle=1;fontSize=33;" vertex="1" parent="LBr9hsCO0pmCrkEfYy0i-32">
          <mxGeometry x="261" y="871.0900000000001" width="123" height="106" as="geometry" />
        </mxCell>
        <mxCell id="MKQej5prIgWaxCBxzrgC-15" value="&lt;div style=&quot;font-size: 8px;&quot;&gt;&lt;font style=&quot;font-size: 8px;&quot;&gt;&lt;br style=&quot;&quot;&gt;&lt;/font&gt;&lt;/div&gt;v1" style="verticalLabelPosition=middle;html=1;verticalAlign=top;strokeWidth=1;align=center;outlineConnect=0;dashed=0;outlineConnect=0;shape=mxgraph.aws3d.dataServer;strokeColor=#6c8ebf;aspect=fixed;fillColor=#dae8fc;labelPosition=center;fontStyle=1;fontSize=33;" vertex="1" parent="LBr9hsCO0pmCrkEfYy0i-32">
          <mxGeometry x="259" y="960" width="123" height="106" as="geometry" />
        </mxCell>
        <mxCell id="MKQej5prIgWaxCBxzrgC-16" style="edgeStyle=orthogonalEdgeStyle;rounded=0;orthogonalLoop=1;jettySize=auto;html=1;" edge="1" parent="LBr9hsCO0pmCrkEfYy0i-32" source="MKQej5prIgWaxCBxzrgC-19" target="MKQej5prIgWaxCBxzrgC-13">
          <mxGeometry relative="1" as="geometry" />
        </mxCell>
        <mxCell id="MKQej5prIgWaxCBxzrgC-17" style="edgeStyle=orthogonalEdgeStyle;rounded=0;orthogonalLoop=1;jettySize=auto;html=1;" edge="1" parent="LBr9hsCO0pmCrkEfYy0i-32" source="MKQej5prIgWaxCBxzrgC-19" target="MKQej5prIgWaxCBxzrgC-14">
          <mxGeometry relative="1" as="geometry" />
        </mxCell>
        <mxCell id="MKQej5prIgWaxCBxzrgC-18" style="edgeStyle=orthogonalEdgeStyle;rounded=0;orthogonalLoop=1;jettySize=auto;html=1;" edge="1" parent="LBr9hsCO0pmCrkEfYy0i-32" source="MKQej5prIgWaxCBxzrgC-19" target="MKQej5prIgWaxCBxzrgC-15">
          <mxGeometry relative="1" as="geometry" />
        </mxCell>
        <mxCell id="MKQej5prIgWaxCBxzrgC-19" value="" style="verticalLabelPosition=bottom;html=1;verticalAlign=top;strokeWidth=1;align=center;outlineConnect=0;dashed=0;outlineConnect=0;shape=mxgraph.aws3d.elasticLoadBalancing;fillColor=#ECECEC;strokeColor=#5E5E5E;aspect=fixed;" vertex="1" parent="LBr9hsCO0pmCrkEfYy0i-32">
          <mxGeometry x="120" y="880.01" width="92" height="88.17" as="geometry" />
        </mxCell>
        <mxCell id="MKQej5prIgWaxCBxzrgC-20" style="edgeStyle=orthogonalEdgeStyle;rounded=0;orthogonalLoop=1;jettySize=auto;html=1;" edge="1" parent="LBr9hsCO0pmCrkEfYy0i-32" source="MKQej5prIgWaxCBxzrgC-21" target="MKQej5prIgWaxCBxzrgC-19">
          <mxGeometry relative="1" as="geometry" />
        </mxCell>
        <mxCell id="MKQej5prIgWaxCBxzrgC-21" value="" style="verticalLabelPosition=bottom;html=1;verticalAlign=top;strokeWidth=1;align=center;outlineConnect=0;dashed=0;outlineConnect=0;shape=mxgraph.aws3d.end_user;strokeColor=none;fillColor=#777777;aspect=fixed;" vertex="1" parent="LBr9hsCO0pmCrkEfYy0i-32">
          <mxGeometry x="20" y="873.8600000000001" width="49" height="100.46" as="geometry" />
        </mxCell>
        <mxCell id="LBr9hsCO0pmCrkEfYy0i-1" value="&lt;div style=&quot;font-size: 8px;&quot;&gt;&lt;font style=&quot;font-size: 8px;&quot;&gt;&lt;br style=&quot;&quot;&gt;&lt;/font&gt;&lt;/div&gt;v1" style="verticalLabelPosition=middle;html=1;verticalAlign=top;strokeWidth=1;align=center;outlineConnect=0;dashed=0;outlineConnect=0;shape=mxgraph.aws3d.dataServer;strokeColor=#6c8ebf;aspect=fixed;fillColor=#dae8fc;labelPosition=center;fontStyle=1;fontSize=33;" parent="1" vertex="1">
          <mxGeometry x="299" y="430" width="123" height="106" as="geometry" />
        </mxCell>
        <mxCell id="LBr9hsCO0pmCrkEfYy0i-4" value="&lt;div style=&quot;font-size: 8px;&quot;&gt;&lt;font style=&quot;font-size: 8px;&quot;&gt;&lt;br style=&quot;&quot;&gt;&lt;/font&gt;&lt;/div&gt;v1" style="verticalLabelPosition=middle;html=1;verticalAlign=top;strokeWidth=1;align=center;outlineConnect=0;dashed=0;outlineConnect=0;shape=mxgraph.aws3d.dataServer;strokeColor=#6c8ebf;aspect=fixed;fillColor=#dae8fc;labelPosition=center;fontStyle=1;fontSize=33;" parent="1" vertex="1">
          <mxGeometry x="301" y="521.09" width="123" height="106" as="geometry" />
        </mxCell>
        <mxCell id="LBr9hsCO0pmCrkEfYy0i-5" value="&lt;div style=&quot;font-size: 8px;&quot;&gt;&lt;font style=&quot;font-size: 8px;&quot;&gt;&lt;br style=&quot;&quot;&gt;&lt;/font&gt;&lt;/div&gt;v1" style="verticalLabelPosition=middle;html=1;verticalAlign=top;strokeWidth=1;align=center;outlineConnect=0;dashed=0;outlineConnect=0;shape=mxgraph.aws3d.dataServer;strokeColor=#6c8ebf;aspect=fixed;fillColor=#dae8fc;labelPosition=center;fontStyle=1;fontSize=33;" parent="1" vertex="1">
          <mxGeometry x="299" y="610" width="123" height="106" as="geometry" />
        </mxCell>
        <mxCell id="LBr9hsCO0pmCrkEfYy0i-9" style="edgeStyle=orthogonalEdgeStyle;rounded=0;orthogonalLoop=1;jettySize=auto;html=1;" parent="1" source="LBr9hsCO0pmCrkEfYy0i-6" target="LBr9hsCO0pmCrkEfYy0i-1" edge="1">
          <mxGeometry relative="1" as="geometry" />
        </mxCell>
        <mxCell id="LBr9hsCO0pmCrkEfYy0i-10" style="edgeStyle=orthogonalEdgeStyle;rounded=0;orthogonalLoop=1;jettySize=auto;html=1;" parent="1" source="LBr9hsCO0pmCrkEfYy0i-6" target="LBr9hsCO0pmCrkEfYy0i-4" edge="1">
          <mxGeometry relative="1" as="geometry" />
        </mxCell>
        <mxCell id="LBr9hsCO0pmCrkEfYy0i-11" style="edgeStyle=orthogonalEdgeStyle;rounded=0;orthogonalLoop=1;jettySize=auto;html=1;" parent="1" source="LBr9hsCO0pmCrkEfYy0i-6" target="LBr9hsCO0pmCrkEfYy0i-5" edge="1">
          <mxGeometry relative="1" as="geometry" />
        </mxCell>
        <mxCell id="LBr9hsCO0pmCrkEfYy0i-6" value="" style="verticalLabelPosition=bottom;html=1;verticalAlign=top;strokeWidth=1;align=center;outlineConnect=0;dashed=0;outlineConnect=0;shape=mxgraph.aws3d.elasticLoadBalancing;fillColor=#ECECEC;strokeColor=#5E5E5E;aspect=fixed;" parent="1" vertex="1">
          <mxGeometry x="160" y="530.01" width="92" height="88.17" as="geometry" />
        </mxCell>
        <mxCell id="LBr9hsCO0pmCrkEfYy0i-8" style="edgeStyle=orthogonalEdgeStyle;rounded=0;orthogonalLoop=1;jettySize=auto;html=1;" parent="1" source="LBr9hsCO0pmCrkEfYy0i-7" target="LBr9hsCO0pmCrkEfYy0i-6" edge="1">
          <mxGeometry relative="1" as="geometry" />
        </mxCell>
        <mxCell id="LBr9hsCO0pmCrkEfYy0i-7" value="" style="verticalLabelPosition=bottom;html=1;verticalAlign=top;strokeWidth=1;align=center;outlineConnect=0;dashed=0;outlineConnect=0;shape=mxgraph.aws3d.end_user;strokeColor=none;fillColor=#777777;aspect=fixed;" parent="1" vertex="1">
          <mxGeometry x="60" y="523.86" width="49" height="100.46" as="geometry" />
        </mxCell>
        <mxCell id="MKQej5prIgWaxCBxzrgC-22" value="" style="group" vertex="1" connectable="0" parent="1">
          <mxGeometry x="460" y="690" width="400" height="1160" as="geometry" />
        </mxCell>
        <mxCell id="MKQej5prIgWaxCBxzrgC-23" value="" style="rounded=0;whiteSpace=wrap;html=1;fillColor=none;" vertex="1" parent="MKQej5prIgWaxCBxzrgC-22">
          <mxGeometry y="-360" width="400" height="1100" as="geometry" />
        </mxCell>
        <mxCell id="MKQej5prIgWaxCBxzrgC-24" value="2" style="ellipse;whiteSpace=wrap;html=1;aspect=fixed;fontSize=27;fontStyle=1;spacing=2;spacingLeft=2;spacingTop=1;" vertex="1" parent="MKQej5prIgWaxCBxzrgC-22">
          <mxGeometry x="10" y="-344.83772843272413" width="47.103155911446066" height="47.103155911446066" as="geometry" />
        </mxCell>
        <mxCell id="MKQej5prIgWaxCBxzrgC-28" value="Dev" style="rounded=0;whiteSpace=wrap;html=1;dashed=1;fillColor=#f5f5f5;fontColor=#333333;strokeColor=#666666;fontStyle=1;labelPosition=center;verticalLabelPosition=middle;align=left;verticalAlign=bottom;spacingLeft=4;spacingBottom=2;" vertex="1" parent="MKQej5prIgWaxCBxzrgC-22">
          <mxGeometry x="10" y="-280" width="380" height="320" as="geometry" />
        </mxCell>
        <mxCell id="MKQej5prIgWaxCBxzrgC-29" value="Stage" style="rounded=0;whiteSpace=wrap;html=1;dashed=1;fillColor=#f5f5f5;fontColor=#333333;strokeColor=#666666;fontStyle=1;labelPosition=center;verticalLabelPosition=middle;align=left;verticalAlign=bottom;spacingLeft=4;spacingBottom=2;" vertex="1" parent="MKQej5prIgWaxCBxzrgC-22">
          <mxGeometry x="10" y="60" width="380" height="320" as="geometry" />
        </mxCell>
        <mxCell id="MKQej5prIgWaxCBxzrgC-30" value="&lt;div style=&quot;font-size: 8px;&quot;&gt;&lt;font style=&quot;font-size: 8px;&quot;&gt;&lt;br style=&quot;&quot;&gt;&lt;/font&gt;&lt;/div&gt;v1" style="verticalLabelPosition=middle;html=1;verticalAlign=top;strokeWidth=1;align=center;outlineConnect=0;dashed=0;outlineConnect=0;shape=mxgraph.aws3d.dataServer;strokeColor=#6c8ebf;aspect=fixed;fillColor=#dae8fc;labelPosition=center;fontStyle=1;fontSize=33;" vertex="1" parent="MKQej5prIgWaxCBxzrgC-22">
          <mxGeometry x="259" y="80" width="123" height="106" as="geometry" />
        </mxCell>
        <mxCell id="MKQej5prIgWaxCBxzrgC-31" value="&lt;div style=&quot;font-size: 8px;&quot;&gt;&lt;font style=&quot;font-size: 8px;&quot;&gt;&lt;br style=&quot;&quot;&gt;&lt;/font&gt;&lt;/div&gt;v1" style="verticalLabelPosition=middle;html=1;verticalAlign=top;strokeWidth=1;align=center;outlineConnect=0;dashed=0;outlineConnect=0;shape=mxgraph.aws3d.dataServer;strokeColor=#6c8ebf;aspect=fixed;fillColor=#dae8fc;labelPosition=center;fontStyle=1;fontSize=33;" vertex="1" parent="MKQej5prIgWaxCBxzrgC-22">
          <mxGeometry x="261" y="171.09000000000003" width="123" height="106" as="geometry" />
        </mxCell>
        <mxCell id="MKQej5prIgWaxCBxzrgC-32" value="&lt;div style=&quot;font-size: 8px;&quot;&gt;&lt;font style=&quot;font-size: 8px;&quot;&gt;&lt;br style=&quot;&quot;&gt;&lt;/font&gt;&lt;/div&gt;v1" style="verticalLabelPosition=middle;html=1;verticalAlign=top;strokeWidth=1;align=center;outlineConnect=0;dashed=0;outlineConnect=0;shape=mxgraph.aws3d.dataServer;strokeColor=#6c8ebf;aspect=fixed;fillColor=#dae8fc;labelPosition=center;fontStyle=1;fontSize=33;" vertex="1" parent="MKQej5prIgWaxCBxzrgC-22">
          <mxGeometry x="259" y="260" width="123" height="106" as="geometry" />
        </mxCell>
        <mxCell id="MKQej5prIgWaxCBxzrgC-33" style="edgeStyle=orthogonalEdgeStyle;rounded=0;orthogonalLoop=1;jettySize=auto;html=1;" edge="1" parent="MKQej5prIgWaxCBxzrgC-22" source="MKQej5prIgWaxCBxzrgC-36" target="MKQej5prIgWaxCBxzrgC-30">
          <mxGeometry relative="1" as="geometry" />
        </mxCell>
        <mxCell id="MKQej5prIgWaxCBxzrgC-34" style="edgeStyle=orthogonalEdgeStyle;rounded=0;orthogonalLoop=1;jettySize=auto;html=1;" edge="1" parent="MKQej5prIgWaxCBxzrgC-22" source="MKQej5prIgWaxCBxzrgC-36" target="MKQej5prIgWaxCBxzrgC-31">
          <mxGeometry relative="1" as="geometry" />
        </mxCell>
        <mxCell id="MKQej5prIgWaxCBxzrgC-35" style="edgeStyle=orthogonalEdgeStyle;rounded=0;orthogonalLoop=1;jettySize=auto;html=1;" edge="1" parent="MKQej5prIgWaxCBxzrgC-22" source="MKQej5prIgWaxCBxzrgC-36" target="MKQej5prIgWaxCBxzrgC-32">
          <mxGeometry relative="1" as="geometry" />
        </mxCell>
        <mxCell id="MKQej5prIgWaxCBxzrgC-36" value="" style="verticalLabelPosition=bottom;html=1;verticalAlign=top;strokeWidth=1;align=center;outlineConnect=0;dashed=0;outlineConnect=0;shape=mxgraph.aws3d.elasticLoadBalancing;fillColor=#ECECEC;strokeColor=#5E5E5E;aspect=fixed;" vertex="1" parent="MKQej5prIgWaxCBxzrgC-22">
          <mxGeometry x="120" y="180.01" width="92" height="88.17" as="geometry" />
        </mxCell>
        <mxCell id="MKQej5prIgWaxCBxzrgC-37" style="edgeStyle=orthogonalEdgeStyle;rounded=0;orthogonalLoop=1;jettySize=auto;html=1;" edge="1" parent="MKQej5prIgWaxCBxzrgC-22" source="MKQej5prIgWaxCBxzrgC-38" target="MKQej5prIgWaxCBxzrgC-36">
          <mxGeometry relative="1" as="geometry" />
        </mxCell>
        <mxCell id="MKQej5prIgWaxCBxzrgC-38" value="" style="verticalLabelPosition=bottom;html=1;verticalAlign=top;strokeWidth=1;align=center;outlineConnect=0;dashed=0;outlineConnect=0;shape=mxgraph.aws3d.end_user;strokeColor=none;fillColor=#777777;aspect=fixed;" vertex="1" parent="MKQej5prIgWaxCBxzrgC-22">
          <mxGeometry x="20" y="173.86" width="49" height="100.46" as="geometry" />
        </mxCell>
        <mxCell id="MKQej5prIgWaxCBxzrgC-39" value="Prod" style="rounded=0;whiteSpace=wrap;html=1;dashed=1;fillColor=#f5f5f5;fontColor=#333333;strokeColor=#666666;fontStyle=1;labelPosition=center;verticalLabelPosition=middle;align=left;verticalAlign=bottom;spacingLeft=4;spacingBottom=2;" vertex="1" parent="MKQej5prIgWaxCBxzrgC-22">
          <mxGeometry x="10" y="400" width="380" height="320" as="geometry" />
        </mxCell>
        <mxCell id="MKQej5prIgWaxCBxzrgC-40" value="&lt;div style=&quot;font-size: 8px;&quot;&gt;&lt;font style=&quot;font-size: 8px;&quot;&gt;&lt;br style=&quot;&quot;&gt;&lt;/font&gt;&lt;/div&gt;v1" style="verticalLabelPosition=middle;html=1;verticalAlign=top;strokeWidth=1;align=center;outlineConnect=0;dashed=0;outlineConnect=0;shape=mxgraph.aws3d.dataServer;strokeColor=#6c8ebf;aspect=fixed;fillColor=#dae8fc;labelPosition=center;fontStyle=1;fontSize=33;" vertex="1" parent="MKQej5prIgWaxCBxzrgC-22">
          <mxGeometry x="259" y="420" width="123" height="106" as="geometry" />
        </mxCell>
        <mxCell id="MKQej5prIgWaxCBxzrgC-41" value="&lt;div style=&quot;font-size: 8px;&quot;&gt;&lt;font style=&quot;font-size: 8px;&quot;&gt;&lt;br style=&quot;&quot;&gt;&lt;/font&gt;&lt;/div&gt;v1" style="verticalLabelPosition=middle;html=1;verticalAlign=top;strokeWidth=1;align=center;outlineConnect=0;dashed=0;outlineConnect=0;shape=mxgraph.aws3d.dataServer;strokeColor=#6c8ebf;aspect=fixed;fillColor=#dae8fc;labelPosition=center;fontStyle=1;fontSize=33;" vertex="1" parent="MKQej5prIgWaxCBxzrgC-22">
          <mxGeometry x="261" y="511.09000000000015" width="123" height="106" as="geometry" />
        </mxCell>
        <mxCell id="MKQej5prIgWaxCBxzrgC-42" value="&lt;div style=&quot;font-size: 8px;&quot;&gt;&lt;font style=&quot;font-size: 8px;&quot;&gt;&lt;br style=&quot;&quot;&gt;&lt;/font&gt;&lt;/div&gt;v1" style="verticalLabelPosition=middle;html=1;verticalAlign=top;strokeWidth=1;align=center;outlineConnect=0;dashed=0;outlineConnect=0;shape=mxgraph.aws3d.dataServer;strokeColor=#6c8ebf;aspect=fixed;fillColor=#dae8fc;labelPosition=center;fontStyle=1;fontSize=33;" vertex="1" parent="MKQej5prIgWaxCBxzrgC-22">
          <mxGeometry x="259" y="600" width="123" height="106" as="geometry" />
        </mxCell>
        <mxCell id="MKQej5prIgWaxCBxzrgC-43" style="edgeStyle=orthogonalEdgeStyle;rounded=0;orthogonalLoop=1;jettySize=auto;html=1;" edge="1" parent="MKQej5prIgWaxCBxzrgC-22" source="MKQej5prIgWaxCBxzrgC-46" target="MKQej5prIgWaxCBxzrgC-40">
          <mxGeometry relative="1" as="geometry" />
        </mxCell>
        <mxCell id="MKQej5prIgWaxCBxzrgC-44" style="edgeStyle=orthogonalEdgeStyle;rounded=0;orthogonalLoop=1;jettySize=auto;html=1;" edge="1" parent="MKQej5prIgWaxCBxzrgC-22" source="MKQej5prIgWaxCBxzrgC-46" target="MKQej5prIgWaxCBxzrgC-41">
          <mxGeometry relative="1" as="geometry" />
        </mxCell>
        <mxCell id="MKQej5prIgWaxCBxzrgC-45" style="edgeStyle=orthogonalEdgeStyle;rounded=0;orthogonalLoop=1;jettySize=auto;html=1;" edge="1" parent="MKQej5prIgWaxCBxzrgC-22" source="MKQej5prIgWaxCBxzrgC-46" target="MKQej5prIgWaxCBxzrgC-42">
          <mxGeometry relative="1" as="geometry" />
        </mxCell>
        <mxCell id="MKQej5prIgWaxCBxzrgC-46" value="" style="verticalLabelPosition=bottom;html=1;verticalAlign=top;strokeWidth=1;align=center;outlineConnect=0;dashed=0;outlineConnect=0;shape=mxgraph.aws3d.elasticLoadBalancing;fillColor=#ECECEC;strokeColor=#5E5E5E;aspect=fixed;" vertex="1" parent="MKQej5prIgWaxCBxzrgC-22">
          <mxGeometry x="120" y="520.01" width="92" height="88.17" as="geometry" />
        </mxCell>
        <mxCell id="MKQej5prIgWaxCBxzrgC-47" style="edgeStyle=orthogonalEdgeStyle;rounded=0;orthogonalLoop=1;jettySize=auto;html=1;" edge="1" parent="MKQej5prIgWaxCBxzrgC-22" source="MKQej5prIgWaxCBxzrgC-48" target="MKQej5prIgWaxCBxzrgC-46">
          <mxGeometry relative="1" as="geometry" />
        </mxCell>
        <mxCell id="MKQej5prIgWaxCBxzrgC-48" value="" style="verticalLabelPosition=bottom;html=1;verticalAlign=top;strokeWidth=1;align=center;outlineConnect=0;dashed=0;outlineConnect=0;shape=mxgraph.aws3d.end_user;strokeColor=none;fillColor=#777777;aspect=fixed;" vertex="1" parent="MKQej5prIgWaxCBxzrgC-22">
          <mxGeometry x="20" y="513.8600000000001" width="49" height="100.46" as="geometry" />
        </mxCell>
        <mxCell id="MKQej5prIgWaxCBxzrgC-49" value="&lt;div style=&quot;font-size: 8px;&quot;&gt;&lt;font style=&quot;font-size: 8px;&quot;&gt;&lt;br style=&quot;&quot;&gt;&lt;/font&gt;&lt;/div&gt;v2" style="verticalLabelPosition=middle;html=1;verticalAlign=top;strokeWidth=1;align=center;outlineConnect=0;dashed=0;outlineConnect=0;shape=mxgraph.aws3d.dataServer;strokeColor=#82b366;aspect=fixed;fillColor=#d5e8d4;labelPosition=center;fontStyle=1;fontSize=33;" vertex="1" parent="1">
          <mxGeometry x="719" y="430" width="123" height="106" as="geometry" />
        </mxCell>
        <mxCell id="MKQej5prIgWaxCBxzrgC-50" value="&lt;div style=&quot;font-size: 8px;&quot;&gt;&lt;font style=&quot;font-size: 8px;&quot;&gt;&lt;br style=&quot;&quot;&gt;&lt;/font&gt;&lt;/div&gt;v2" style="verticalLabelPosition=middle;html=1;verticalAlign=top;strokeWidth=1;align=center;outlineConnect=0;dashed=0;outlineConnect=0;shape=mxgraph.aws3d.dataServer;strokeColor=#82b366;aspect=fixed;fillColor=#d5e8d4;labelPosition=center;fontStyle=1;fontSize=33;" vertex="1" parent="1">
          <mxGeometry x="721" y="521.09" width="123" height="106" as="geometry" />
        </mxCell>
        <mxCell id="MKQej5prIgWaxCBxzrgC-51" value="&lt;div style=&quot;font-size: 8px;&quot;&gt;&lt;font style=&quot;font-size: 8px;&quot;&gt;&lt;br style=&quot;&quot;&gt;&lt;/font&gt;&lt;/div&gt;v2" style="verticalLabelPosition=middle;html=1;verticalAlign=top;strokeWidth=1;align=center;outlineConnect=0;dashed=0;outlineConnect=0;shape=mxgraph.aws3d.dataServer;strokeColor=#82b366;aspect=fixed;fillColor=#d5e8d4;labelPosition=center;fontStyle=1;fontSize=33;" vertex="1" parent="1">
          <mxGeometry x="719" y="610" width="123" height="106" as="geometry" />
        </mxCell>
        <mxCell id="MKQej5prIgWaxCBxzrgC-52" style="edgeStyle=orthogonalEdgeStyle;rounded=0;orthogonalLoop=1;jettySize=auto;html=1;" edge="1" parent="1" source="MKQej5prIgWaxCBxzrgC-55" target="MKQej5prIgWaxCBxzrgC-49">
          <mxGeometry relative="1" as="geometry" />
        </mxCell>
        <mxCell id="MKQej5prIgWaxCBxzrgC-53" style="edgeStyle=orthogonalEdgeStyle;rounded=0;orthogonalLoop=1;jettySize=auto;html=1;" edge="1" parent="1" source="MKQej5prIgWaxCBxzrgC-55" target="MKQej5prIgWaxCBxzrgC-50">
          <mxGeometry relative="1" as="geometry" />
        </mxCell>
        <mxCell id="MKQej5prIgWaxCBxzrgC-54" style="edgeStyle=orthogonalEdgeStyle;rounded=0;orthogonalLoop=1;jettySize=auto;html=1;" edge="1" parent="1" source="MKQej5prIgWaxCBxzrgC-55" target="MKQej5prIgWaxCBxzrgC-51">
          <mxGeometry relative="1" as="geometry" />
        </mxCell>
        <mxCell id="MKQej5prIgWaxCBxzrgC-55" value="" style="verticalLabelPosition=bottom;html=1;verticalAlign=top;strokeWidth=1;align=center;outlineConnect=0;dashed=0;outlineConnect=0;shape=mxgraph.aws3d.elasticLoadBalancing;fillColor=#ECECEC;strokeColor=#5E5E5E;aspect=fixed;" vertex="1" parent="1">
          <mxGeometry x="580" y="530.01" width="92" height="88.17" as="geometry" />
        </mxCell>
        <mxCell id="MKQej5prIgWaxCBxzrgC-56" style="edgeStyle=orthogonalEdgeStyle;rounded=0;orthogonalLoop=1;jettySize=auto;html=1;" edge="1" parent="1" source="MKQej5prIgWaxCBxzrgC-57" target="MKQej5prIgWaxCBxzrgC-55">
          <mxGeometry relative="1" as="geometry" />
        </mxCell>
        <mxCell id="MKQej5prIgWaxCBxzrgC-57" value="" style="verticalLabelPosition=bottom;html=1;verticalAlign=top;strokeWidth=1;align=center;outlineConnect=0;dashed=0;outlineConnect=0;shape=mxgraph.aws3d.end_user;strokeColor=none;fillColor=#777777;aspect=fixed;" vertex="1" parent="1">
          <mxGeometry x="480" y="523.86" width="49" height="100.46" as="geometry" />
        </mxCell>
        <mxCell id="MKQej5prIgWaxCBxzrgC-58" value="" style="rounded=0;whiteSpace=wrap;html=1;fillColor=none;" vertex="1" parent="1">
          <mxGeometry x="880" y="330" width="400" height="1100" as="geometry" />
        </mxCell>
        <mxCell id="MKQej5prIgWaxCBxzrgC-59" value="3" style="ellipse;whiteSpace=wrap;html=1;aspect=fixed;fontSize=27;fontStyle=1;spacing=2;spacingLeft=2;spacingTop=1;" vertex="1" parent="1">
          <mxGeometry x="890" y="345.16227156727587" width="47.103155911446066" height="47.103155911446066" as="geometry" />
        </mxCell>
        <mxCell id="MKQej5prIgWaxCBxzrgC-60" value="Dev" style="rounded=0;whiteSpace=wrap;html=1;dashed=1;fillColor=#f5f5f5;fontColor=#333333;strokeColor=#666666;fontStyle=1;labelPosition=center;verticalLabelPosition=middle;align=left;verticalAlign=bottom;spacingLeft=4;spacingBottom=2;" vertex="1" parent="1">
          <mxGeometry x="890" y="410" width="380" height="320" as="geometry" />
        </mxCell>
        <mxCell id="MKQej5prIgWaxCBxzrgC-61" value="Stage" style="rounded=0;whiteSpace=wrap;html=1;dashed=1;fillColor=#f5f5f5;fontColor=#333333;strokeColor=#666666;fontStyle=1;labelPosition=center;verticalLabelPosition=middle;align=left;verticalAlign=bottom;spacingLeft=4;spacingBottom=2;" vertex="1" parent="1">
          <mxGeometry x="890" y="750" width="380" height="320" as="geometry" />
        </mxCell>
        <mxCell id="MKQej5prIgWaxCBxzrgC-62" value="&lt;div style=&quot;font-size: 8px;&quot;&gt;&lt;font style=&quot;font-size: 8px;&quot;&gt;&lt;br style=&quot;&quot;&gt;&lt;/font&gt;&lt;/div&gt;v2" style="verticalLabelPosition=middle;html=1;verticalAlign=top;strokeWidth=1;align=center;outlineConnect=0;dashed=0;outlineConnect=0;shape=mxgraph.aws3d.dataServer;strokeColor=#82b366;aspect=fixed;fillColor=#d5e8d4;labelPosition=center;fontStyle=1;fontSize=33;" vertex="1" parent="1">
          <mxGeometry x="1139" y="770" width="123" height="106" as="geometry" />
        </mxCell>
        <mxCell id="MKQej5prIgWaxCBxzrgC-63" value="&lt;div style=&quot;font-size: 8px;&quot;&gt;&lt;font style=&quot;font-size: 8px;&quot;&gt;&lt;br style=&quot;&quot;&gt;&lt;/font&gt;&lt;/div&gt;v2" style="verticalLabelPosition=middle;html=1;verticalAlign=top;strokeWidth=1;align=center;outlineConnect=0;dashed=0;outlineConnect=0;shape=mxgraph.aws3d.dataServer;strokeColor=#82b366;aspect=fixed;fillColor=#d5e8d4;labelPosition=center;fontStyle=1;fontSize=33;" vertex="1" parent="1">
          <mxGeometry x="1141" y="861.09" width="123" height="106" as="geometry" />
        </mxCell>
        <mxCell id="MKQej5prIgWaxCBxzrgC-64" value="&lt;div style=&quot;font-size: 8px;&quot;&gt;&lt;font style=&quot;font-size: 8px;&quot;&gt;&lt;br style=&quot;&quot;&gt;&lt;/font&gt;&lt;/div&gt;v2" style="verticalLabelPosition=middle;html=1;verticalAlign=top;strokeWidth=1;align=center;outlineConnect=0;dashed=0;outlineConnect=0;shape=mxgraph.aws3d.dataServer;strokeColor=#82b366;aspect=fixed;fillColor=#d5e8d4;labelPosition=center;fontStyle=1;fontSize=33;" vertex="1" parent="1">
          <mxGeometry x="1139" y="950" width="123" height="106" as="geometry" />
        </mxCell>
        <mxCell id="MKQej5prIgWaxCBxzrgC-65" style="edgeStyle=orthogonalEdgeStyle;rounded=0;orthogonalLoop=1;jettySize=auto;html=1;" edge="1" parent="1" source="MKQej5prIgWaxCBxzrgC-68" target="MKQej5prIgWaxCBxzrgC-62">
          <mxGeometry relative="1" as="geometry" />
        </mxCell>
        <mxCell id="MKQej5prIgWaxCBxzrgC-66" style="edgeStyle=orthogonalEdgeStyle;rounded=0;orthogonalLoop=1;jettySize=auto;html=1;" edge="1" parent="1" source="MKQej5prIgWaxCBxzrgC-68" target="MKQej5prIgWaxCBxzrgC-63">
          <mxGeometry relative="1" as="geometry" />
        </mxCell>
        <mxCell id="MKQej5prIgWaxCBxzrgC-67" style="edgeStyle=orthogonalEdgeStyle;rounded=0;orthogonalLoop=1;jettySize=auto;html=1;" edge="1" parent="1" source="MKQej5prIgWaxCBxzrgC-68" target="MKQej5prIgWaxCBxzrgC-64">
          <mxGeometry relative="1" as="geometry" />
        </mxCell>
        <mxCell id="MKQej5prIgWaxCBxzrgC-68" value="" style="verticalLabelPosition=bottom;html=1;verticalAlign=top;strokeWidth=1;align=center;outlineConnect=0;dashed=0;outlineConnect=0;shape=mxgraph.aws3d.elasticLoadBalancing;fillColor=#ECECEC;strokeColor=#5E5E5E;aspect=fixed;" vertex="1" parent="1">
          <mxGeometry x="1000" y="870.01" width="92" height="88.17" as="geometry" />
        </mxCell>
        <mxCell id="MKQej5prIgWaxCBxzrgC-69" style="edgeStyle=orthogonalEdgeStyle;rounded=0;orthogonalLoop=1;jettySize=auto;html=1;" edge="1" parent="1" source="MKQej5prIgWaxCBxzrgC-70" target="MKQej5prIgWaxCBxzrgC-68">
          <mxGeometry relative="1" as="geometry" />
        </mxCell>
        <mxCell id="MKQej5prIgWaxCBxzrgC-70" value="" style="verticalLabelPosition=bottom;html=1;verticalAlign=top;strokeWidth=1;align=center;outlineConnect=0;dashed=0;outlineConnect=0;shape=mxgraph.aws3d.end_user;strokeColor=none;fillColor=#777777;aspect=fixed;" vertex="1" parent="1">
          <mxGeometry x="900" y="863.86" width="49" height="100.46" as="geometry" />
        </mxCell>
        <mxCell id="MKQej5prIgWaxCBxzrgC-71" value="Prod" style="rounded=0;whiteSpace=wrap;html=1;dashed=1;fillColor=#f5f5f5;fontColor=#333333;strokeColor=#666666;fontStyle=1;labelPosition=center;verticalLabelPosition=middle;align=left;verticalAlign=bottom;spacingLeft=4;spacingBottom=2;" vertex="1" parent="1">
          <mxGeometry x="890" y="1090" width="380" height="320" as="geometry" />
        </mxCell>
        <mxCell id="MKQej5prIgWaxCBxzrgC-72" value="&lt;div style=&quot;font-size: 8px;&quot;&gt;&lt;font style=&quot;font-size: 8px;&quot;&gt;&lt;br style=&quot;&quot;&gt;&lt;/font&gt;&lt;/div&gt;v1" style="verticalLabelPosition=middle;html=1;verticalAlign=top;strokeWidth=1;align=center;outlineConnect=0;dashed=0;outlineConnect=0;shape=mxgraph.aws3d.dataServer;strokeColor=#6c8ebf;aspect=fixed;fillColor=#dae8fc;labelPosition=center;fontStyle=1;fontSize=33;" vertex="1" parent="1">
          <mxGeometry x="1139" y="1110" width="123" height="106" as="geometry" />
        </mxCell>
        <mxCell id="MKQej5prIgWaxCBxzrgC-73" value="&lt;div style=&quot;font-size: 8px;&quot;&gt;&lt;font style=&quot;font-size: 8px;&quot;&gt;&lt;br style=&quot;&quot;&gt;&lt;/font&gt;&lt;/div&gt;v1" style="verticalLabelPosition=middle;html=1;verticalAlign=top;strokeWidth=1;align=center;outlineConnect=0;dashed=0;outlineConnect=0;shape=mxgraph.aws3d.dataServer;strokeColor=#6c8ebf;aspect=fixed;fillColor=#dae8fc;labelPosition=center;fontStyle=1;fontSize=33;" vertex="1" parent="1">
          <mxGeometry x="1141" y="1201.0900000000001" width="123" height="106" as="geometry" />
        </mxCell>
        <mxCell id="MKQej5prIgWaxCBxzrgC-74" value="&lt;div style=&quot;font-size: 8px;&quot;&gt;&lt;font style=&quot;font-size: 8px;&quot;&gt;&lt;br style=&quot;&quot;&gt;&lt;/font&gt;&lt;/div&gt;v1" style="verticalLabelPosition=middle;html=1;verticalAlign=top;strokeWidth=1;align=center;outlineConnect=0;dashed=0;outlineConnect=0;shape=mxgraph.aws3d.dataServer;strokeColor=#6c8ebf;aspect=fixed;fillColor=#dae8fc;labelPosition=center;fontStyle=1;fontSize=33;" vertex="1" parent="1">
          <mxGeometry x="1139" y="1290" width="123" height="106" as="geometry" />
        </mxCell>
        <mxCell id="MKQej5prIgWaxCBxzrgC-75" style="edgeStyle=orthogonalEdgeStyle;rounded=0;orthogonalLoop=1;jettySize=auto;html=1;" edge="1" parent="1" source="MKQej5prIgWaxCBxzrgC-78" target="MKQej5prIgWaxCBxzrgC-72">
          <mxGeometry relative="1" as="geometry" />
        </mxCell>
        <mxCell id="MKQej5prIgWaxCBxzrgC-76" style="edgeStyle=orthogonalEdgeStyle;rounded=0;orthogonalLoop=1;jettySize=auto;html=1;" edge="1" parent="1" source="MKQej5prIgWaxCBxzrgC-78" target="MKQej5prIgWaxCBxzrgC-73">
          <mxGeometry relative="1" as="geometry" />
        </mxCell>
        <mxCell id="MKQej5prIgWaxCBxzrgC-77" style="edgeStyle=orthogonalEdgeStyle;rounded=0;orthogonalLoop=1;jettySize=auto;html=1;" edge="1" parent="1" source="MKQej5prIgWaxCBxzrgC-78" target="MKQej5prIgWaxCBxzrgC-74">
          <mxGeometry relative="1" as="geometry" />
        </mxCell>
        <mxCell id="MKQej5prIgWaxCBxzrgC-78" value="" style="verticalLabelPosition=bottom;html=1;verticalAlign=top;strokeWidth=1;align=center;outlineConnect=0;dashed=0;outlineConnect=0;shape=mxgraph.aws3d.elasticLoadBalancing;fillColor=#ECECEC;strokeColor=#5E5E5E;aspect=fixed;" vertex="1" parent="1">
          <mxGeometry x="1000" y="1210.01" width="92" height="88.17" as="geometry" />
        </mxCell>
        <mxCell id="MKQej5prIgWaxCBxzrgC-79" style="edgeStyle=orthogonalEdgeStyle;rounded=0;orthogonalLoop=1;jettySize=auto;html=1;" edge="1" parent="1" source="MKQej5prIgWaxCBxzrgC-80" target="MKQej5prIgWaxCBxzrgC-78">
          <mxGeometry relative="1" as="geometry" />
        </mxCell>
        <mxCell id="MKQej5prIgWaxCBxzrgC-80" value="" style="verticalLabelPosition=bottom;html=1;verticalAlign=top;strokeWidth=1;align=center;outlineConnect=0;dashed=0;outlineConnect=0;shape=mxgraph.aws3d.end_user;strokeColor=none;fillColor=#777777;aspect=fixed;" vertex="1" parent="1">
          <mxGeometry x="900" y="1203.8600000000001" width="49" height="100.46" as="geometry" />
        </mxCell>
        <mxCell id="MKQej5prIgWaxCBxzrgC-81" value="&lt;div style=&quot;font-size: 8px;&quot;&gt;&lt;font style=&quot;font-size: 8px;&quot;&gt;&lt;br style=&quot;&quot;&gt;&lt;/font&gt;&lt;/div&gt;v2" style="verticalLabelPosition=middle;html=1;verticalAlign=top;strokeWidth=1;align=center;outlineConnect=0;dashed=0;outlineConnect=0;shape=mxgraph.aws3d.dataServer;strokeColor=#82b366;aspect=fixed;fillColor=#d5e8d4;labelPosition=center;fontStyle=1;fontSize=33;" vertex="1" parent="1">
          <mxGeometry x="1139" y="430" width="123" height="106" as="geometry" />
        </mxCell>
        <mxCell id="MKQej5prIgWaxCBxzrgC-82" value="&lt;div style=&quot;font-size: 8px;&quot;&gt;&lt;font style=&quot;font-size: 8px;&quot;&gt;&lt;br style=&quot;&quot;&gt;&lt;/font&gt;&lt;/div&gt;v2" style="verticalLabelPosition=middle;html=1;verticalAlign=top;strokeWidth=1;align=center;outlineConnect=0;dashed=0;outlineConnect=0;shape=mxgraph.aws3d.dataServer;strokeColor=#82b366;aspect=fixed;fillColor=#d5e8d4;labelPosition=center;fontStyle=1;fontSize=33;" vertex="1" parent="1">
          <mxGeometry x="1141" y="521.09" width="123" height="106" as="geometry" />
        </mxCell>
        <mxCell id="MKQej5prIgWaxCBxzrgC-83" value="&lt;div style=&quot;font-size: 8px;&quot;&gt;&lt;font style=&quot;font-size: 8px;&quot;&gt;&lt;br style=&quot;&quot;&gt;&lt;/font&gt;&lt;/div&gt;v2" style="verticalLabelPosition=middle;html=1;verticalAlign=top;strokeWidth=1;align=center;outlineConnect=0;dashed=0;outlineConnect=0;shape=mxgraph.aws3d.dataServer;strokeColor=#82b366;aspect=fixed;fillColor=#d5e8d4;labelPosition=center;fontStyle=1;fontSize=33;" vertex="1" parent="1">
          <mxGeometry x="1139" y="610" width="123" height="106" as="geometry" />
        </mxCell>
        <mxCell id="MKQej5prIgWaxCBxzrgC-84" style="edgeStyle=orthogonalEdgeStyle;rounded=0;orthogonalLoop=1;jettySize=auto;html=1;" edge="1" parent="1" source="MKQej5prIgWaxCBxzrgC-87" target="MKQej5prIgWaxCBxzrgC-81">
          <mxGeometry relative="1" as="geometry" />
        </mxCell>
        <mxCell id="MKQej5prIgWaxCBxzrgC-85" style="edgeStyle=orthogonalEdgeStyle;rounded=0;orthogonalLoop=1;jettySize=auto;html=1;" edge="1" parent="1" source="MKQej5prIgWaxCBxzrgC-87" target="MKQej5prIgWaxCBxzrgC-82">
          <mxGeometry relative="1" as="geometry" />
        </mxCell>
        <mxCell id="MKQej5prIgWaxCBxzrgC-86" style="edgeStyle=orthogonalEdgeStyle;rounded=0;orthogonalLoop=1;jettySize=auto;html=1;" edge="1" parent="1" source="MKQej5prIgWaxCBxzrgC-87" target="MKQej5prIgWaxCBxzrgC-83">
          <mxGeometry relative="1" as="geometry" />
        </mxCell>
        <mxCell id="MKQej5prIgWaxCBxzrgC-87" value="" style="verticalLabelPosition=bottom;html=1;verticalAlign=top;strokeWidth=1;align=center;outlineConnect=0;dashed=0;outlineConnect=0;shape=mxgraph.aws3d.elasticLoadBalancing;fillColor=#ECECEC;strokeColor=#5E5E5E;aspect=fixed;" vertex="1" parent="1">
          <mxGeometry x="1000" y="530.01" width="92" height="88.17" as="geometry" />
        </mxCell>
        <mxCell id="MKQej5prIgWaxCBxzrgC-88" style="edgeStyle=orthogonalEdgeStyle;rounded=0;orthogonalLoop=1;jettySize=auto;html=1;" edge="1" parent="1" source="MKQej5prIgWaxCBxzrgC-89" target="MKQej5prIgWaxCBxzrgC-87">
          <mxGeometry relative="1" as="geometry" />
        </mxCell>
        <mxCell id="MKQej5prIgWaxCBxzrgC-89" value="" style="verticalLabelPosition=bottom;html=1;verticalAlign=top;strokeWidth=1;align=center;outlineConnect=0;dashed=0;outlineConnect=0;shape=mxgraph.aws3d.end_user;strokeColor=none;fillColor=#777777;aspect=fixed;" vertex="1" parent="1">
          <mxGeometry x="900" y="523.86" width="49" height="100.46" as="geometry" />
        </mxCell>
        <mxCell id="MKQej5prIgWaxCBxzrgC-90" value="" style="rounded=0;whiteSpace=wrap;html=1;fillColor=none;" vertex="1" parent="1">
          <mxGeometry x="1300" y="330" width="400" height="1100" as="geometry" />
        </mxCell>
        <mxCell id="MKQej5prIgWaxCBxzrgC-91" value="4" style="ellipse;whiteSpace=wrap;html=1;aspect=fixed;fontSize=27;fontStyle=1;spacing=2;spacingLeft=2;spacingTop=1;" vertex="1" parent="1">
          <mxGeometry x="1310" y="345.16227156727587" width="47.103155911446066" height="47.103155911446066" as="geometry" />
        </mxCell>
        <mxCell id="MKQej5prIgWaxCBxzrgC-92" value="Dev" style="rounded=0;whiteSpace=wrap;html=1;dashed=1;fillColor=#f5f5f5;fontColor=#333333;strokeColor=#666666;fontStyle=1;labelPosition=center;verticalLabelPosition=middle;align=left;verticalAlign=bottom;spacingLeft=4;spacingBottom=2;" vertex="1" parent="1">
          <mxGeometry x="1310" y="410" width="380" height="320" as="geometry" />
        </mxCell>
        <mxCell id="MKQej5prIgWaxCBxzrgC-93" value="Stage" style="rounded=0;whiteSpace=wrap;html=1;dashed=1;fillColor=#f5f5f5;fontColor=#333333;strokeColor=#666666;fontStyle=1;labelPosition=center;verticalLabelPosition=middle;align=left;verticalAlign=bottom;spacingLeft=4;spacingBottom=2;" vertex="1" parent="1">
          <mxGeometry x="1310" y="750" width="380" height="320" as="geometry" />
        </mxCell>
        <mxCell id="MKQej5prIgWaxCBxzrgC-94" value="&lt;div style=&quot;font-size: 8px;&quot;&gt;&lt;font style=&quot;font-size: 8px;&quot;&gt;&lt;br style=&quot;&quot;&gt;&lt;/font&gt;&lt;/div&gt;v2" style="verticalLabelPosition=middle;html=1;verticalAlign=top;strokeWidth=1;align=center;outlineConnect=0;dashed=0;outlineConnect=0;shape=mxgraph.aws3d.dataServer;strokeColor=#82b366;aspect=fixed;fillColor=#d5e8d4;labelPosition=center;fontStyle=1;fontSize=33;" vertex="1" parent="1">
          <mxGeometry x="1559" y="770" width="123" height="106" as="geometry" />
        </mxCell>
        <mxCell id="MKQej5prIgWaxCBxzrgC-95" value="&lt;div style=&quot;font-size: 8px;&quot;&gt;&lt;font style=&quot;font-size: 8px;&quot;&gt;&lt;br style=&quot;&quot;&gt;&lt;/font&gt;&lt;/div&gt;v2" style="verticalLabelPosition=middle;html=1;verticalAlign=top;strokeWidth=1;align=center;outlineConnect=0;dashed=0;outlineConnect=0;shape=mxgraph.aws3d.dataServer;strokeColor=#82b366;aspect=fixed;fillColor=#d5e8d4;labelPosition=center;fontStyle=1;fontSize=33;" vertex="1" parent="1">
          <mxGeometry x="1561" y="861.09" width="123" height="106" as="geometry" />
        </mxCell>
        <mxCell id="MKQej5prIgWaxCBxzrgC-96" value="&lt;div style=&quot;font-size: 8px;&quot;&gt;&lt;font style=&quot;font-size: 8px;&quot;&gt;&lt;br style=&quot;&quot;&gt;&lt;/font&gt;&lt;/div&gt;v2" style="verticalLabelPosition=middle;html=1;verticalAlign=top;strokeWidth=1;align=center;outlineConnect=0;dashed=0;outlineConnect=0;shape=mxgraph.aws3d.dataServer;strokeColor=#82b366;aspect=fixed;fillColor=#d5e8d4;labelPosition=center;fontStyle=1;fontSize=33;" vertex="1" parent="1">
          <mxGeometry x="1559" y="950" width="123" height="106" as="geometry" />
        </mxCell>
        <mxCell id="MKQej5prIgWaxCBxzrgC-97" style="edgeStyle=orthogonalEdgeStyle;rounded=0;orthogonalLoop=1;jettySize=auto;html=1;" edge="1" parent="1" source="MKQej5prIgWaxCBxzrgC-100" target="MKQej5prIgWaxCBxzrgC-94">
          <mxGeometry relative="1" as="geometry" />
        </mxCell>
        <mxCell id="MKQej5prIgWaxCBxzrgC-98" style="edgeStyle=orthogonalEdgeStyle;rounded=0;orthogonalLoop=1;jettySize=auto;html=1;" edge="1" parent="1" source="MKQej5prIgWaxCBxzrgC-100" target="MKQej5prIgWaxCBxzrgC-95">
          <mxGeometry relative="1" as="geometry" />
        </mxCell>
        <mxCell id="MKQej5prIgWaxCBxzrgC-99" style="edgeStyle=orthogonalEdgeStyle;rounded=0;orthogonalLoop=1;jettySize=auto;html=1;" edge="1" parent="1" source="MKQej5prIgWaxCBxzrgC-100" target="MKQej5prIgWaxCBxzrgC-96">
          <mxGeometry relative="1" as="geometry" />
        </mxCell>
        <mxCell id="MKQej5prIgWaxCBxzrgC-100" value="" style="verticalLabelPosition=bottom;html=1;verticalAlign=top;strokeWidth=1;align=center;outlineConnect=0;dashed=0;outlineConnect=0;shape=mxgraph.aws3d.elasticLoadBalancing;fillColor=#ECECEC;strokeColor=#5E5E5E;aspect=fixed;" vertex="1" parent="1">
          <mxGeometry x="1420" y="870.01" width="92" height="88.17" as="geometry" />
        </mxCell>
        <mxCell id="MKQej5prIgWaxCBxzrgC-101" style="edgeStyle=orthogonalEdgeStyle;rounded=0;orthogonalLoop=1;jettySize=auto;html=1;" edge="1" parent="1" source="MKQej5prIgWaxCBxzrgC-102" target="MKQej5prIgWaxCBxzrgC-100">
          <mxGeometry relative="1" as="geometry" />
        </mxCell>
        <mxCell id="MKQej5prIgWaxCBxzrgC-102" value="" style="verticalLabelPosition=bottom;html=1;verticalAlign=top;strokeWidth=1;align=center;outlineConnect=0;dashed=0;outlineConnect=0;shape=mxgraph.aws3d.end_user;strokeColor=none;fillColor=#777777;aspect=fixed;" vertex="1" parent="1">
          <mxGeometry x="1320" y="863.86" width="49" height="100.46" as="geometry" />
        </mxCell>
        <mxCell id="MKQej5prIgWaxCBxzrgC-103" value="Prod" style="rounded=0;whiteSpace=wrap;html=1;dashed=1;fillColor=#f5f5f5;fontColor=#333333;strokeColor=#666666;fontStyle=1;labelPosition=center;verticalLabelPosition=middle;align=left;verticalAlign=bottom;spacingLeft=4;spacingBottom=2;" vertex="1" parent="1">
          <mxGeometry x="1310" y="1090" width="380" height="320" as="geometry" />
        </mxCell>
        <mxCell id="MKQej5prIgWaxCBxzrgC-104" value="&lt;div style=&quot;font-size: 8px;&quot;&gt;&lt;font style=&quot;font-size: 8px;&quot;&gt;&lt;br style=&quot;&quot;&gt;&lt;/font&gt;&lt;/div&gt;v2" style="verticalLabelPosition=middle;html=1;verticalAlign=top;strokeWidth=1;align=center;outlineConnect=0;dashed=0;outlineConnect=0;shape=mxgraph.aws3d.dataServer;strokeColor=#82b366;aspect=fixed;fillColor=#d5e8d4;labelPosition=center;fontStyle=1;fontSize=33;" vertex="1" parent="1">
          <mxGeometry x="1559" y="1110" width="123" height="106" as="geometry" />
        </mxCell>
        <mxCell id="MKQej5prIgWaxCBxzrgC-105" value="&lt;div style=&quot;font-size: 8px;&quot;&gt;&lt;font style=&quot;font-size: 8px;&quot;&gt;&lt;br style=&quot;&quot;&gt;&lt;/font&gt;&lt;/div&gt;v2" style="verticalLabelPosition=middle;html=1;verticalAlign=top;strokeWidth=1;align=center;outlineConnect=0;dashed=0;outlineConnect=0;shape=mxgraph.aws3d.dataServer;strokeColor=#82b366;aspect=fixed;fillColor=#d5e8d4;labelPosition=center;fontStyle=1;fontSize=33;" vertex="1" parent="1">
          <mxGeometry x="1561" y="1201.0900000000001" width="123" height="106" as="geometry" />
        </mxCell>
        <mxCell id="MKQej5prIgWaxCBxzrgC-106" value="&lt;div style=&quot;font-size: 8px;&quot;&gt;&lt;font style=&quot;font-size: 8px;&quot;&gt;&lt;br style=&quot;&quot;&gt;&lt;/font&gt;&lt;/div&gt;v2" style="verticalLabelPosition=middle;html=1;verticalAlign=top;strokeWidth=1;align=center;outlineConnect=0;dashed=0;outlineConnect=0;shape=mxgraph.aws3d.dataServer;strokeColor=#82b366;aspect=fixed;fillColor=#d5e8d4;labelPosition=center;fontStyle=1;fontSize=33;" vertex="1" parent="1">
          <mxGeometry x="1559" y="1290" width="123" height="106" as="geometry" />
        </mxCell>
        <mxCell id="MKQej5prIgWaxCBxzrgC-107" style="edgeStyle=orthogonalEdgeStyle;rounded=0;orthogonalLoop=1;jettySize=auto;html=1;" edge="1" parent="1" source="MKQej5prIgWaxCBxzrgC-110" target="MKQej5prIgWaxCBxzrgC-104">
          <mxGeometry relative="1" as="geometry" />
        </mxCell>
        <mxCell id="MKQej5prIgWaxCBxzrgC-108" style="edgeStyle=orthogonalEdgeStyle;rounded=0;orthogonalLoop=1;jettySize=auto;html=1;" edge="1" parent="1" source="MKQej5prIgWaxCBxzrgC-110" target="MKQej5prIgWaxCBxzrgC-105">
          <mxGeometry relative="1" as="geometry" />
        </mxCell>
        <mxCell id="MKQej5prIgWaxCBxzrgC-109" style="edgeStyle=orthogonalEdgeStyle;rounded=0;orthogonalLoop=1;jettySize=auto;html=1;" edge="1" parent="1" source="MKQej5prIgWaxCBxzrgC-110" target="MKQej5prIgWaxCBxzrgC-106">
          <mxGeometry relative="1" as="geometry" />
        </mxCell>
        <mxCell id="MKQej5prIgWaxCBxzrgC-110" value="" style="verticalLabelPosition=bottom;html=1;verticalAlign=top;strokeWidth=1;align=center;outlineConnect=0;dashed=0;outlineConnect=0;shape=mxgraph.aws3d.elasticLoadBalancing;fillColor=#ECECEC;strokeColor=#5E5E5E;aspect=fixed;" vertex="1" parent="1">
          <mxGeometry x="1420" y="1210.01" width="92" height="88.17" as="geometry" />
        </mxCell>
        <mxCell id="MKQej5prIgWaxCBxzrgC-111" style="edgeStyle=orthogonalEdgeStyle;rounded=0;orthogonalLoop=1;jettySize=auto;html=1;" edge="1" parent="1" source="MKQej5prIgWaxCBxzrgC-112" target="MKQej5prIgWaxCBxzrgC-110">
          <mxGeometry relative="1" as="geometry" />
        </mxCell>
        <mxCell id="MKQej5prIgWaxCBxzrgC-112" value="" style="verticalLabelPosition=bottom;html=1;verticalAlign=top;strokeWidth=1;align=center;outlineConnect=0;dashed=0;outlineConnect=0;shape=mxgraph.aws3d.end_user;strokeColor=none;fillColor=#777777;aspect=fixed;" vertex="1" parent="1">
          <mxGeometry x="1320" y="1203.8600000000001" width="49" height="100.46" as="geometry" />
        </mxCell>
        <mxCell id="MKQej5prIgWaxCBxzrgC-113" value="&lt;div style=&quot;font-size: 8px;&quot;&gt;&lt;font style=&quot;font-size: 8px;&quot;&gt;&lt;br style=&quot;&quot;&gt;&lt;/font&gt;&lt;/div&gt;v2" style="verticalLabelPosition=middle;html=1;verticalAlign=top;strokeWidth=1;align=center;outlineConnect=0;dashed=0;outlineConnect=0;shape=mxgraph.aws3d.dataServer;strokeColor=#82b366;aspect=fixed;fillColor=#d5e8d4;labelPosition=center;fontStyle=1;fontSize=33;" vertex="1" parent="1">
          <mxGeometry x="1559" y="430" width="123" height="106" as="geometry" />
        </mxCell>
        <mxCell id="MKQej5prIgWaxCBxzrgC-114" value="&lt;div style=&quot;font-size: 8px;&quot;&gt;&lt;font style=&quot;font-size: 8px;&quot;&gt;&lt;br style=&quot;&quot;&gt;&lt;/font&gt;&lt;/div&gt;v2" style="verticalLabelPosition=middle;html=1;verticalAlign=top;strokeWidth=1;align=center;outlineConnect=0;dashed=0;outlineConnect=0;shape=mxgraph.aws3d.dataServer;strokeColor=#82b366;aspect=fixed;fillColor=#d5e8d4;labelPosition=center;fontStyle=1;fontSize=33;" vertex="1" parent="1">
          <mxGeometry x="1561" y="521.09" width="123" height="106" as="geometry" />
        </mxCell>
        <mxCell id="MKQej5prIgWaxCBxzrgC-115" value="&lt;div style=&quot;font-size: 8px;&quot;&gt;&lt;font style=&quot;font-size: 8px;&quot;&gt;&lt;br style=&quot;&quot;&gt;&lt;/font&gt;&lt;/div&gt;v2" style="verticalLabelPosition=middle;html=1;verticalAlign=top;strokeWidth=1;align=center;outlineConnect=0;dashed=0;outlineConnect=0;shape=mxgraph.aws3d.dataServer;strokeColor=#82b366;aspect=fixed;fillColor=#d5e8d4;labelPosition=center;fontStyle=1;fontSize=33;" vertex="1" parent="1">
          <mxGeometry x="1559" y="610" width="123" height="106" as="geometry" />
        </mxCell>
        <mxCell id="MKQej5prIgWaxCBxzrgC-116" style="edgeStyle=orthogonalEdgeStyle;rounded=0;orthogonalLoop=1;jettySize=auto;html=1;" edge="1" parent="1" source="MKQej5prIgWaxCBxzrgC-119" target="MKQej5prIgWaxCBxzrgC-113">
          <mxGeometry relative="1" as="geometry" />
        </mxCell>
        <mxCell id="MKQej5prIgWaxCBxzrgC-117" style="edgeStyle=orthogonalEdgeStyle;rounded=0;orthogonalLoop=1;jettySize=auto;html=1;" edge="1" parent="1" source="MKQej5prIgWaxCBxzrgC-119" target="MKQej5prIgWaxCBxzrgC-114">
          <mxGeometry relative="1" as="geometry" />
        </mxCell>
        <mxCell id="MKQej5prIgWaxCBxzrgC-118" style="edgeStyle=orthogonalEdgeStyle;rounded=0;orthogonalLoop=1;jettySize=auto;html=1;" edge="1" parent="1" source="MKQej5prIgWaxCBxzrgC-119" target="MKQej5prIgWaxCBxzrgC-115">
          <mxGeometry relative="1" as="geometry" />
        </mxCell>
        <mxCell id="MKQej5prIgWaxCBxzrgC-119" value="" style="verticalLabelPosition=bottom;html=1;verticalAlign=top;strokeWidth=1;align=center;outlineConnect=0;dashed=0;outlineConnect=0;shape=mxgraph.aws3d.elasticLoadBalancing;fillColor=#ECECEC;strokeColor=#5E5E5E;aspect=fixed;" vertex="1" parent="1">
          <mxGeometry x="1420" y="530.01" width="92" height="88.17" as="geometry" />
        </mxCell>
        <mxCell id="MKQej5prIgWaxCBxzrgC-120" style="edgeStyle=orthogonalEdgeStyle;rounded=0;orthogonalLoop=1;jettySize=auto;html=1;" edge="1" parent="1" source="MKQej5prIgWaxCBxzrgC-121" target="MKQej5prIgWaxCBxzrgC-119">
          <mxGeometry relative="1" as="geometry" />
        </mxCell>
        <mxCell id="MKQej5prIgWaxCBxzrgC-121" value="" style="verticalLabelPosition=bottom;html=1;verticalAlign=top;strokeWidth=1;align=center;outlineConnect=0;dashed=0;outlineConnect=0;shape=mxgraph.aws3d.end_user;strokeColor=none;fillColor=#777777;aspect=fixed;" vertex="1" parent="1">
          <mxGeometry x="1320" y="523.86" width="49" height="100.46" as="geometry" />
        </mxCell>
      </root>
    </mxGraphModel>
  </diagram>
</mxfile>
